<svg xmlns="http://www.w3.org/2000/svg" viewBox="0 0 51 28" xmlns:c2pa="http://c2pa.org/manifest"><metadata><c2pa:manifest>AAAWgmp1bWIAAAAeanVtZGMycGEAEQAQgAAAqgA4m3EDYzJwYQAAABZcanVtYgAAAEdqdW1kYzJtYQARABCAAACqADibcQN1cm46YzJwYTpkZDA5NzAyOS1hODcxLTRiNTEtOTI1MC1jYzhlNmM1YmJlZTAAAAADl2p1bWIAAAApanVtZGMyYXMAEQAQgAAAqgA4m3EDYzJwYS5hc3NlcnRpb25zAAAAALxqdW1iAAAARGp1bWRjYm9yABEAEIAAAKoAOJtxE2MycGEuaW5ncmVkaWVudC52MwAAAAAYYzJzaIhle0i1oiAOpU8kY8OBqesAAABwY2JvcqNpZGM6Zm9ybWF0bWltYWdlL3N2Zyt4bWxqaW5zdGFuY2VJRHgseG1wOmlpZDoyZWMxYTZiYi1hYTIxLTQ3NmMtODZiNy0xYjE3OTYyNzI1N2JscmVsYXRpb25zaGlwaHBhcmVudE9mAAAB4mp1bWIAAABBanVtZGNib3IAEQAQgAAAqgA4m3ETYzJwYS5hY3Rpb25zLnYyAAAAABhjMnNoWD4TrfL1m28wBVAK+p71SAAAAZljYm9yomdhY3Rpb25zgqJmYWN0aW9ua2MycGEub3BlbmVkanBhcmFtZXRlcnOha2luZ3JlZGllbnRzgaJjdXJseC1zZWxmI2p1bWJmPWMycGEuYXNzZXJ0aW9ucy9jMnBhLmluZ3JlZGllbnQudjNkaGFzaFggKM/Hmb5HmCPZhIj1KpzjzjshfQ4Iss4l6idn/7k90mekZmFjdGlvbngdY29tLmFudGhyb3BpYy5jbGF1ZGUucHJvdmlkZWRqcGFyYW1ldGVyc6F4H2NvbS5hbnRocm9waWMub3JpZ2luLWNvbmZpZGVuY2VndW5rbm93bmtkZXNjcmlwdGlvbnhmQ2xhdWRlIHByb3ZpZGVkIHRoaXMgZmlsZSBhdCB0aGUgcmVxdWVzdCBvZiBhIHVzZXIgYW5kIG1heSBoYXZlIGNyZWF0ZWQgb3IgbW9kaWZpZWQgdGhlIGZpbGUgY29udGVudHMubXNvZnR3YXJlQWdlbnShZG5hbWVmQ2xhdWRlcmFsbEFjdGlvbnNJbmNsdWRlZPUAAADIanVtYgAAAEBqdW1kY2JvcgARABCAAACqADibcRNjMnBhLmhhc2guZGF0YQAAAAAYYzJzaA25WygeJRgpamTVtaofQrMAAACAY2JvcqVjYWxnZnNoYTI1NmNwYWRNAAAAAAAAAAAAAAAAAGRoYXNoWCB095llL0UojvhdbxhqTMrJB8mlabk1+UTKq/7AJoaZh2RuYW1lbmp1bWJmIG1hbmlmZXN0amV4Y2x1c2lvbnOBomVzdGFydBh7Zmxlbmd0aBkeBAAAAj5qdW1iAAAAJ2p1bWRjMmNsABEAEIAAAKoAOJtxA2MycGEuY2xhaW0udjIAAAACD2Nib3KlY2FsZ2ZzaGEyNTZpc2lnbmF0dXJleE1zZWxmI2p1bWJmPS9jMnBhL3VybjpjMnBhOmRkMDk3MDI5LWE4NzEtNGI1MS05MjUwLWNjOGU2YzViYmVlMC9jMnBhLnNpZ25hdHVyZWppbnN0YW5jZUlEeCx4bXA6aWlkOjIzNWQxZjhiLTRhZmItNDg1NS05ZjkzLTRjYzJhOWY3NzRiZXJjcmVhdGVkX2Fzc2VydGlvbnODomN1cmx4LXNlbGYjanVtYmY9YzJwYS5hc3NlcnRpb25zL2MycGEuaW5ncmVkaWVudC52M2RoYXNoWCAoz8eZvkeYI9mEiPUqnOPOOyF9DgiyziXqJ2f/uT3SZ6JjdXJseCpzZWxmI2p1bWJmPWMycGEuYXNzZXJ0aW9ucy9jMnBhLmFjdGlvbnMudjJkaGFzaFggNzhBacg2+0O/Eat6QdOwi9W42qYB2zh/yktqzKU83RWiY3VybHgpc2VsZiNqdW1iZj1jMnBhLmFzc2VydGlvbnMvYzJwYS5oYXNoLmRhdGFkaGFzaFggouVVKbP8gPnjKFd9MtWaiACEGKVL4f66qMBwGTg2/XJ0Y2xhaW1fZ2VuZXJhdG9yX2luZm+jZG5hbWVvQW50aHJvcGljIEZpbGVzZ3ZlcnNpb25lMS4wLjBrc3BlY1ZlcnNpb25lMi40LjAAABA4anVtYgAAAChqdW1kYzJjcwARABCAAACqADibcQNjMnBhLnNpZ25hdHVyZQAAABAIY2JvctKEWQISogEmGCFZAgowggIGMIIBjaADAgECAhRA5aAK7sI50L64g/oGQgU9Z1UTADAKBggqhkjOPQQDAzBJMRcwFQYDVQQKEw5BbnRocm9waWMsIFBCQzEuMCwGA1UEAxMlQW50aHJvcGljIENvbnRlbnQgQ3JlZGVudGlhbHMgUm9vdCBDQTAeFw0yNjA4MDcxODQzNTZaFw0yODA4MDYxOTQzNTZaMEQxFzAVBgNVBAoTDkFudGhyb3BpYywgUEJDMSkwJwYDVQQDEyBBbnRocm9waWMgQ2xhdWRlIENvbnRlbnQgU2lnbmluZzBZMBMGByqGSM49AgEGCCqGSM49AwEHA0IABJh6CmvLUBgFFNU0vUKlOVtE6djd17L5SuwX0LemFisBM3dkd/3cyjxFA3Qo5S46fX0/ihY0VZ7mfb9KF703t5OjWDBWMA4GA1UdDwEB/wQEAwIHgDAVBgNVHSUEDjAMBgorBgEEAYPoXgIBMAwGA1UdEwEB/wQCMAAwHwYDVR0jBBgwFoAUzlHiBIFOZFsj+OPEz5o+nMHXXMIwCgYIKoZIzj0EAwMDZwAwZAIwMXMdFJ4BetLLVY7ORuE9noqbbAZOZn/aArXyTwFAZfKrPzxF2vPoJNf1+UCdg1XGAjBwX1zd9WGqYkqmL5SFqw1QySjr1zJfpJM9+1rdDwSPLMOPOjKuiXjoU/pUUeG9RwmhY3BhZFkNngAAAAAAAAAAAAAAAAAAAAAAAAAAAAAAAAAAAAAAAAAAAAAAAAAAAAAAAAAAAAAAAAAAAAAAAAAAAAAAAAAAAAAAAAAAAAAAAAAAAAAAAAAAAAAAAAAAAAAAAAAAAAAAAAAAAAAAAAAAAAAAAAAAAAAAAAAAAAAAAAAAAAAAAAAAAAAAAAAAAAAAAAAAAAAAAAAAAAAAAAAAAAAAAAAAAAAAAAAAAAAAAAAAAAAAAAAAAAAAAAAAAAAAAAAAAAAAAAAAAAAAAAAAAAAAAAAAAAAAAAAAAAAAAAAAAAAAAAAAAAAAAAAAAAAAAAAAAAAAAAAAAAAAAAAAAAAAAAAAAAAAAAAAAAAAAAAAAAAAAAAAAAAAAAAAAAAAAAAAAAAAAAAAAAAAAAAAAAAAAAAAAAAAAAAAAAAAAAAAAAAAAAAAAAAAAAAAAAAAAAAAAAAAAAAAAAAAAAAAAAAAAAAAAAAAAAAAAAAAAAAAAAAAAAAAAAAAAAAAAAAAAAAAAAAAAAAAAAAAAAAAAAAAAAAAAAAAAAAAAAAAAAAAAAAAAAAAAAAAAAAAAAAAAAAAAAAAAAAAAAAAAAAAAAAAAAAAAAAAAAAAAAAAAAAAAAAAAAAAAAAAAAAAAAAAAAAAAAAAAAAAAAAAAAAAAAAAAAAAAAAAAAAAAAAAAAAAAAAAAAAAAAAAAAAAAAAAAAAAAAAAAAAAAAAAAAAAAAAAAAAAAAAAAAAAAAAAAAAAAAAAAAAAAAAAAAAAAAAAAAAAAAAAAAAAAAAAAAAAAAAAAAAAAAAAAAAAAAAAAAAAAAAAAAAAAAAAAAAAAAAAAAAAAAAAAAAAAAAAAAAAAAAAAAAAAAAAAAAAAAAAAAAAAAAAAAAAAAAAAAAAAAAAAAAAAAAAAAAAAAAAAAAAAAAAAAAAAAAAAAAAAAAAAAAAAAAAAAAAAAAAAAAAAAAAAAAAAAAAAAAAAAAAAAAAAAAAAAAAAAAAAAAAAAAAAAAAAAAAAAAAAAAAAAAAAAAAAAAAAAAAAAAAAAAAAAAAAAAAAAAAAAAAAAAAAAAAAAAAAAAAAAAAAAAAAAAAAAAAAAAAAAAAAAAAAAAAAAAAAAAAAAAAAAAAAAAAAAAAAAAAAAAAAAAAAAAAAAAAAAAAAAAAAAAAAAAAAAAAAAAAAAAAAAAAAAAAAAAAAAAAAAAAAAAAAAAAAAAAAAAAAAAAAAAAAAAAAAAAAAAAAAAAAAAAAAAAAAAAAAAAAAAAAAAAAAAAAAAAAAAAAAAAAAAAAAAAAAAAAAAAAAAAAAAAAAAAAAAAAAAAAAAAAAAAAAAAAAAAAAAAAAAAAAAAAAAAAAAAAAAAAAAAAAAAAAAAAAAAAAAAAAAAAAAAAAAAAAAAAAAAAAAAAAAAAAAAAAAAAAAAAAAAAAAAAAAAAAAAAAAAAAAAAAAAAAAAAAAAAAAAAAAAAAAAAAAAAAAAAAAAAAAAAAAAAAAAAAAAAAAAAAAAAAAAAAAAAAAAAAAAAAAAAAAAAAAAAAAAAAAAAAAAAAAAAAAAAAAAAAAAAAAAAAAAAAAAAAAAAAAAAAAAAAAAAAAAAAAAAAAAAAAAAAAAAAAAAAAAAAAAAAAAAAAAAAAAAAAAAAAAAAAAAAAAAAAAAAAAAAAAAAAAAAAAAAAAAAAAAAAAAAAAAAAAAAAAAAAAAAAAAAAAAAAAAAAAAAAAAAAAAAAAAAAAAAAAAAAAAAAAAAAAAAAAAAAAAAAAAAAAAAAAAAAAAAAAAAAAAAAAAAAAAAAAAAAAAAAAAAAAAAAAAAAAAAAAAAAAAAAAAAAAAAAAAAAAAAAAAAAAAAAAAAAAAAAAAAAAAAAAAAAAAAAAAAAAAAAAAAAAAAAAAAAAAAAAAAAAAAAAAAAAAAAAAAAAAAAAAAAAAAAAAAAAAAAAAAAAAAAAAAAAAAAAAAAAAAAAAAAAAAAAAAAAAAAAAAAAAAAAAAAAAAAAAAAAAAAAAAAAAAAAAAAAAAAAAAAAAAAAAAAAAAAAAAAAAAAAAAAAAAAAAAAAAAAAAAAAAAAAAAAAAAAAAAAAAAAAAAAAAAAAAAAAAAAAAAAAAAAAAAAAAAAAAAAAAAAAAAAAAAAAAAAAAAAAAAAAAAAAAAAAAAAAAAAAAAAAAAAAAAAAAAAAAAAAAAAAAAAAAAAAAAAAAAAAAAAAAAAAAAAAAAAAAAAAAAAAAAAAAAAAAAAAAAAAAAAAAAAAAAAAAAAAAAAAAAAAAAAAAAAAAAAAAAAAAAAAAAAAAAAAAAAAAAAAAAAAAAAAAAAAAAAAAAAAAAAAAAAAAAAAAAAAAAAAAAAAAAAAAAAAAAAAAAAAAAAAAAAAAAAAAAAAAAAAAAAAAAAAAAAAAAAAAAAAAAAAAAAAAAAAAAAAAAAAAAAAAAAAAAAAAAAAAAAAAAAAAAAAAAAAAAAAAAAAAAAAAAAAAAAAAAAAAAAAAAAAAAAAAAAAAAAAAAAAAAAAAAAAAAAAAAAAAAAAAAAAAAAAAAAAAAAAAAAAAAAAAAAAAAAAAAAAAAAAAAAAAAAAAAAAAAAAAAAAAAAAAAAAAAAAAAAAAAAAAAAAAAAAAAAAAAAAAAAAAAAAAAAAAAAAAAAAAAAAAAAAAAAAAAAAAAAAAAAAAAAAAAAAAAAAAAAAAAAAAAAAAAAAAAAAAAAAAAAAAAAAAAAAAAAAAAAAAAAAAAAAAAAAAAAAAAAAAAAAAAAAAAAAAAAAAAAAAAAAAAAAAAAAAAAAAAAAAAAAAAAAAAAAAAAAAAAAAAAAAAAAAAAAAAAAAAAAAAAAAAAAAAAAAAAAAAAAAAAAAAAAAAAAAAAAAAAAAAAAAAAAAAAAAAAAAAAAAAAAAAAAAAAAAAAAAAAAAAAAAAAAAAAAAAAAAAAAAAAAAAAAAAAAAAAAAAAAAAAAAAAAAAAAAAAAAAAAAAAAAAAAAAAAAAAAAAAAAAAAAAAAAAAAAAAAAAAAAAAAAAAAAAAAAAAAAAAAAAAAAAAAAAAAAAAAAAAAAAAAAAAAAAAAAAAAAAAAAAAAAAAAAAAAAAAAAAAAAAAAAAAAAAAAAAAAAAAAAAAAAAAAAAAAAAAAAAAAAAAAAAAAAAAAAAAAAAAAAAAAAAAAAAAAAAAAAAAAAAAAAAAAAAAAAAAAAAAAAAAAAAAAAAAAAAAAAAAAAAAAAAAAAAAAAAAAAAAAAAAAAAAAAAAAAAAAAAAAAAAAAAAAAAAAAAAAAAAAAAAAAAAAAAAAAAAAAAAAAAAAAAAAAAAAAAAAAAAAAAAAAAAAAAAAAAAAAAAAAAAAAAAAAAAAAAAAAAAAAAAAAAAAAAAAAAAAAAAAAAAAAAAAAAAAAAAAAAAAAAAAAAAAAAAAAAAAAAAAAAAAAAAAAAAAAAAAAAAAAAAAAAAAAAAAAAAAAAAAAAAAAAAAAAAAAAAAAAAAAAAAAAAAAAAAAAAAAAAAAAAAAAAAAAAAAAAAAAAAAAAAAAAAAAAAAAAAAAAAAAAAAAAAAAAAAAAAAAAAAAAAAAAAAAAAAAAAAAAAAAAAAAAAAAAAAAAAAAAAAAAAAAAAAAAAAAAAAAAAAAAAAAAAAAAAAAAAAAAAAAAAAAAAAAAAAAAAAAAAAAAAAAAAAAAAAAAAAAAAAAAAAAAAAAAAAAAAAAAAAAAAAAAAAAAAAAAAAAAAAAAAAAAAAAAAAAAAAAAAAAAAAAAAAAAAAAAAAAAAAAAAAAAAAAAAAAAAAAAAAAAAAAAAAAAAAAAAAAAAAAAAAAAAAAAAAAAAAAAAAAAAAAAAAAAAAAAAAAAAAAAAAAAAAAAAAAAAAAAAAAAAAAAAAAAAAAAAAAAAAAAAAAAAAAAAAAAAAAAAAAAAAAAAAAAAAAAAAAAAAAAAAAAAAAAAAAAAAAAAAAAAAAAAAAAAAAAAAAAAAAAAAAAAAAAAAAAAAAAAAAAAAAAAAAAAAAAAAAAAAAAAAAAAAAAAAAAAAAAAAAAAAAAAAAAAAAAAAAAAAAAAAAAAAAAAAAAAAAAAAAAAAAAAAAAAAAAAAAAAAAAAAAAAAAAAAAAAAAAAAAAAAAAAAAAAAAAAAAAAAAAAAAAAAAAAAAAAAAAAAAAAAAAAAAAAAAAAAAAAAAAAAAAAAAAAAAAAAAAAAAAAAAAAAAAAAAAAAAAAAAAAAAAAAAAAAAAAAAAAAAAAAAAAAAAAAAAAAAAAAAAAAAAAAAAAAAAAAAAAAAAAAAAAAAAAAAAAAAAAAAAAAAAAAAAAAAAAAAAAAAAAAAAAAAAAAAAAAAAAAAAAAAAAAAAAAAAAAAAAAAAAAAAAAAAAAAAAAAAAAAAAAAAAAAAAAAAAAAAAAAAAAAAAAAAAAAAAAAAAAAAAAAAAAAAAAAAAAAAAAAAAAAAAAAAAAAAAAAAAAAAAAAAAAAAAAAAAAAAAAAAAAAAAAAAAAAAAAAAAAAAAAAAAAAAAAAAAAAAAAAAAAAAAAAAAAAAAAAAAAAAAAAAAAAAAAAAAAAAAAAAAAAAAAAAAAAAAAAAAAAAAAAAAAAAAAAAAAAAAAAAAAAAAAAAAAAAAAAAAAAAAAAAAAAAAAAAAAAAAAAAAAAAAAAAAAAAAAAAAAAAAAAAAAAAAAAAAAAAAAAAAAAAAAAAAAAAAAAAAAAAAAAAAAAAAAAAAAPZYQCNobNjjaiwqHMM4H71pk4Cm+xa1892c5rckX2XkD8teLG0oPZqlG3MyHFZCyai2Lnit9i8J7Wr6poOft5/O1ek=</c2pa:manifest></metadata>
<path fill="#141b21" d="M 6.841 22.062 C 6.123 22.064 5.408 21.986 4.708 21.83 C 4.067 21.703 3.452 21.466 2.893 21.13 C 2.385 20.812 1.959 20.381 1.65 19.87 C 1.347 19.355 1.196 18.743 1.196 18.032 L 1.196 17.815 C 1.207 17.751 1.213 17.687 1.213 17.623 L 3.426 17.623 C 3.424 17.681 3.417 17.739 3.406 17.796 L 3.406 17.988 C 3.406 18.468 3.551 18.874 3.839 19.21 C 4.129 19.546 4.53 19.798 5.044 19.966 C 5.571 20.134 6.169 20.218 6.839 20.218 C 7.209 20.218 7.564 20.2 7.905 20.16 C 8.248 20.108 8.556 20.038 8.834 19.947 C 9.122 19.843 9.372 19.721 9.583 19.579 C 9.783 19.435 9.951 19.25 10.075 19.037 C 10.197 18.817 10.259 18.57 10.255 18.319 C 10.267 17.941 10.132 17.573 9.878 17.292 C 9.605 16.995 9.269 16.763 8.893 16.613 C 8.439 16.416 7.971 16.254 7.492 16.128 C 6.96 15.981 6.426 15.84 5.891 15.703 C 5.344 15.562 4.804 15.394 4.273 15.199 C 3.783 15.016 3.314 14.782 2.874 14.501 C 2.473 14.225 2.137 13.869 1.885 13.454 C 1.65 13.029 1.53 12.513 1.53 11.905 C 1.53 11.324 1.657 10.806 1.906 10.355 C 2.156 9.903 2.518 9.527 2.991 9.231 C 3.512 8.901 4.086 8.664 4.688 8.531 C 5.42 8.369 6.169 8.291 6.918 8.3 C 7.629 8.3 8.301 8.377 8.932 8.533 C 9.563 8.675 10.116 8.901 10.589 9.21 C 11.063 9.522 11.433 9.916 11.695 10.393 C 11.971 10.871 12.11 11.44 12.11 12.1 L 12.11 12.332 L 9.919 12.332 L 9.919 12.08 C 9.93 11.697 9.796 11.324 9.544 11.034 C 9.259 10.727 8.898 10.499 8.498 10.374 C 7.994 10.21 7.467 10.132 6.938 10.141 C 6.241 10.141 5.654 10.211 5.183 10.355 C 4.708 10.484 4.346 10.67 4.096 10.917 C 3.863 11.139 3.734 11.448 3.741 11.769 C 3.741 12.145 3.865 12.455 4.117 12.7 C 4.367 12.933 4.696 13.132 5.102 13.3 C 5.524 13.468 5.992 13.624 6.503 13.766 C 7.031 13.895 7.564 14.037 8.104 14.193 C 8.656 14.334 9.189 14.502 9.701 14.697 C 10.228 14.889 10.694 15.129 11.102 15.414 C 11.524 15.698 11.858 16.053 12.11 16.48 C 12.36 16.893 12.484 17.404 12.484 18.011 C 12.484 18.967 12.24 19.749 11.755 20.356 C 11.267 20.951 10.596 21.383 9.741 21.655 C 8.899 21.926 7.931 22.061 6.839 22.061 Z M 17.076 22.062 C 16.484 22.062 16.016 21.952 15.675 21.732 C 15.359 21.515 15.112 21.212 14.964 20.86 C 14.831 20.493 14.764 20.106 14.765 19.716 L 14.765 13.3 L 13.464 13.3 L 13.464 11.634 L 14.806 11.634 L 15.18 8.785 L 16.819 8.785 L 16.819 11.634 L 18.694 11.634 L 18.694 13.3 L 16.819 13.3 L 16.819 19.485 C 16.819 19.782 16.885 20.006 17.016 20.162 C 17.148 20.318 17.365 20.395 17.667 20.395 L 18.694 20.395 L 18.694 21.751 C 18.562 21.803 18.397 21.849 18.202 21.887 C 18.014 21.939 17.822 21.978 17.628 22.003 C 17.446 22.04 17.261 22.06 17.074 22.062 Z M 22.844 22.062 C 22.517 22.062 22.162 22.022 21.781 21.945 C 21.397 21.866 21.03 21.722 20.695 21.518 C 20.36 21.304 20.082 21.011 19.886 20.666 C 19.675 20.291 19.57 19.806 19.57 19.213 C 19.57 18.513 19.735 17.939 20.062 17.488 C 20.418 17.014 20.895 16.645 21.445 16.42 C 22.119 16.14 22.829 15.958 23.555 15.878 C 24.385 15.774 25.287 15.724 26.26 15.724 L 26.26 14.716 C 26.26 14.38 26.202 14.082 26.084 13.823 C 25.965 13.552 25.745 13.337 25.47 13.223 C 25.182 13.081 24.76 13.009 24.207 13.009 C 23.655 13.009 23.223 13.079 22.906 13.223 C 22.643 13.321 22.416 13.497 22.255 13.727 C 22.136 13.92 22.074 14.142 22.076 14.367 L 22.076 14.658 L 20.103 14.658 C 20.09 14.594 20.083 14.529 20.083 14.464 L 20.083 14.231 C 20.083 13.624 20.254 13.113 20.595 12.7 C 20.952 12.273 21.445 11.951 22.076 11.73 C 22.783 11.499 23.523 11.388 24.267 11.401 C 25.162 11.401 25.904 11.531 26.497 11.79 C 27.102 12.035 27.556 12.39 27.858 12.855 C 28.161 13.319 28.312 13.883 28.312 14.541 L 28.312 19.715 C 28.312 19.96 28.372 20.135 28.49 20.24 C 28.619 20.342 28.78 20.396 28.945 20.394 L 29.656 20.394 L 29.656 21.751 C 29.497 21.815 29.299 21.88 29.063 21.945 C 28.792 22.013 28.514 22.046 28.235 22.041 C 27.878 22.041 27.575 21.976 27.325 21.849 C 27.089 21.732 26.886 21.559 26.735 21.345 C 26.587 21.107 26.487 20.844 26.437 20.569 L 26.32 20.569 C 26.082 20.867 25.792 21.129 25.451 21.364 C 25.1 21.593 24.714 21.764 24.308 21.868 C 23.872 21.997 23.386 22.06 22.846 22.06 Z M 23.418 20.395 C 23.826 20.395 24.2 20.337 24.543 20.22 C 24.876 20.103 25.184 19.926 25.451 19.696 C 25.699 19.466 25.901 19.189 26.043 18.883 C 26.188 18.561 26.26 18.211 26.26 17.836 L 26.26 17.157 C 25.352 17.157 24.556 17.21 23.872 17.313 C 23.187 17.418 22.655 17.61 22.273 17.894 C 21.898 18.153 21.682 18.584 21.701 19.038 C 21.701 19.336 21.766 19.588 21.898 19.794 C 22.03 19.987 22.227 20.136 22.491 20.239 C 22.755 20.344 23.063 20.395 23.418 20.395 Z M 34.914 22.062 C 33.876 22.062 33.008 21.873 32.311 21.499 C 31.603 21.1 31.047 20.48 30.73 19.735 C 30.389 18.947 30.218 17.946 30.218 16.732 C 30.218 15.517 30.394 14.522 30.749 13.746 C 31.106 12.959 31.632 12.371 32.329 11.982 C 33.039 11.596 33.908 11.401 34.935 11.401 C 35.645 11.401 36.263 11.492 36.79 11.673 C 37.316 11.841 37.763 12.1 38.132 12.448 C 38.501 12.784 38.771 13.204 38.941 13.708 C 39.124 14.212 39.217 14.786 39.217 15.433 L 37.146 15.433 C 37.146 14.891 37.066 14.445 36.908 14.095 C 36.763 13.759 36.505 13.485 36.178 13.319 C 35.849 13.139 35.422 13.048 34.895 13.048 C 34.342 13.048 33.875 13.178 33.493 13.437 C 33.111 13.682 32.823 14.063 32.626 14.579 C 32.427 15.083 32.329 15.75 32.329 16.576 L 32.329 16.905 C 32.329 17.693 32.422 18.352 32.605 18.883 C 32.804 19.401 33.092 19.787 33.474 20.046 C 33.869 20.291 34.369 20.414 34.974 20.414 C 35.501 20.414 35.922 20.323 36.236 20.143 C 36.56 19.955 36.815 19.67 36.966 19.329 C 37.147 18.92 37.235 18.477 37.223 18.03 L 39.217 18.03 C 39.217 18.638 39.124 19.185 38.941 19.677 C 38.769 20.167 38.501 20.594 38.132 20.956 C 37.75 21.323 37.291 21.6 36.789 21.77 C 36.185 21.975 35.551 22.074 34.914 22.062 Z M 41.011 21.829 L 41.011 7.816 L 43.065 7.816 L 43.065 16.285 L 47.15 11.634 L 49.577 11.634 L 46.064 15.589 L 49.774 21.829 L 47.405 21.829 L 44.741 17.061 L 43.065 18.688 L 43.065 21.829 Z"/>
<path fill="none" stroke="#141b21" stroke-width="0.663" stroke-linecap="round" d="M 0.584 4.083 L 50.627 4.083 M 0.584 27.62 L 50.627 27.62"/>
</svg>
